<svg width="24" height="24" viewBox="0 0 24 24" fill="none" xmlns="http://www.w3.org/2000/svg">
<path fill-rule="evenodd" clip-rule="evenodd" d="M21.228 4.5H3.77202C3.34587 4.5 3 4.164 3 3.75C3 3.336 3.34587 3 3.77202 3H21.228C21.6541 3 22 3.336 22 3.75C22 4.164 21.6541 4.5 21.228 4.5Z" fill="#2B2F3F"/>
<path fill-rule="evenodd" clip-rule="evenodd" d="M17.371 4C16.4165 4 15.5879 3.51233 15.4 2.84125L15.1962 2.11004C15.1534 1.9988 14.9764 1.90198 14.7751 1.90198H11.2249C11.0236 1.90198 10.8466 1.9988 10.7954 2.1377L10.6 2.84125C10.413 3.51233 9.58349 4 8.62904 4C8.28181 4 8 3.79796 8 3.54901C8 3.30006 8.28181 3.09802 8.62904 3.09802C8.98633 3.09802 9.29665 2.91521 9.36711 2.66386L9.57091 1.93265C9.77808 1.37222 10.4549 1 11.2249 1H14.7751C15.5451 1 16.2219 1.37222 16.4207 1.90559L16.6337 2.66386C16.7033 2.91521 17.0137 3.09802 17.371 3.09802C17.7182 3.09802 18 3.30006 18 3.54901C18 3.79796 17.7182 4 17.371 4" fill="#2B2F3F"/>
<path fill-rule="evenodd" clip-rule="evenodd" d="M4.31335 6.05556C4.31495 6.13539 4.31971 6.21584 4.32776 6.29678L5.62016 19.2968C5.77269 20.8311 7.06352 22 8.60544 22H16.3946C17.9365 22 19.2273 20.8311 19.3799 19.2968L20.6723 6.29678C20.6797 6.22232 20.6843 6.14827 20.6862 6.07473H19.3854C19.384 6.10574 19.3817 6.13689 19.3786 6.16818L18.0862 19.1682C17.9998 20.0376 17.2683 20.7 16.3946 20.7H8.60544C7.73168 20.7 7.00022 20.0376 6.91378 19.1682L5.62138 6.16817C5.61827 6.13689 5.61603 6.10573 5.61463 6.07473H4.65444C4.53911 6.07473 4.4253 6.06823 4.31335 6.05556Z" fill="#2B2F3F"/>
</svg>
