<svg width="24" height="24" viewBox="0 0 24 24" fill="none" xmlns="http://www.w3.org/2000/svg">
<path fill-rule="evenodd" clip-rule="evenodd" d="M6.65 2.3C4.24756 2.3 2.3 4.24756 2.3 6.65V16.65C2.3 19.0524 4.24756 21 6.65 21H16.65C19.0524 21 21 19.0524 21 16.65V11.65C21 11.291 21.291 11 21.65 11C22.009 11 22.3 11.291 22.3 11.65V16.65C22.3 19.7704 19.7704 22.3 16.65 22.3H6.65C3.52959 22.3 1 19.7704 1 16.65V6.65C1 3.52959 3.52959 1 6.65 1H16.65C17.009 1 17.3 1.29101 17.3 1.65C17.3 2.00898 17.009 2.3 16.65 2.3H6.65Z" fill="#2B2F3F"/>
<path d="M2.5 19C2.72384 17.082 4.88358 13.972 7.56965 16.7339C10.2557 19.4959 12.2703 15.9382 14.2848 13.2815C15.1802 11.5553 19.4595 10.252 21 18.5626" stroke="#2B2F3F" stroke-width="1.5" stroke-linecap="round"/>
<circle cx="7.5" cy="8.5" r="1.75" stroke="#2B2F3F" stroke-width="1.5"/>
<path d="M19 3C17.3432 3 16 4.3432 16 6C16 7.6568 17.3432 9 19 9C20.6568 9 22 7.6568 22 6C22 4.3432 20.6568 3 19 3ZM19.5143 5.8305V7.7H18.4857V5.8305H17.4L19 4.3L20.6 5.8305H19.5143Z" fill="#2B2F3F"/>
</svg>
