<svg width="24" height="24" viewBox="0 0 24 24" fill="none" xmlns="http://www.w3.org/2000/svg">
<path fill-rule="evenodd" clip-rule="evenodd" d="M2.04762 2H9.95238C9.97868 2 10 2.02132 10 2.04762V4.39967C10.3256 4.31423 10.6594 4.24916 11 4.20589V2.04762C11 1.46904 10.531 1 9.95238 1H2.04762C1.46904 1 1 1.46904 1 2.04762V9.95238C1 10.531 1.46904 11 2.04762 11H4.20589C4.24916 10.6594 4.31423 10.3256 4.39967 10H2.04762C2.02132 10 2 9.97868 2 9.95238V2.04762C2 2.02132 2.02132 2 2.04762 2ZM4.20589 13H2.04762C1.46904 13 1 13.469 1 14.0476V21.9524C1 22.531 1.46904 23 2.04762 23H9.95238C10.531 23 11 22.531 11 21.9524V19.7941C10.6594 19.7508 10.3256 19.6858 10 19.6003V21.9524C10 21.9787 9.97868 22 9.95238 22H2.04762C2.02132 22 2 21.9787 2 21.9524V14.0476C2 14.0213 2.02132 14 2.04762 14H4.39967C4.31423 13.6744 4.24916 13.3406 4.20589 13ZM13 19.7941V21.9524C13 22.531 13.469 23 14.0476 23H21.9524C22.531 23 23 22.531 23 21.9524V14.0476C23 13.469 22.531 13 21.9524 13H19.7941C19.7508 13.3406 19.6858 13.6744 19.6003 14H21.9524C21.9787 14 22 14.0213 22 14.0476V21.9524C22 21.9787 21.9787 22 21.9524 22H14.0476C14.0213 22 14 21.9787 14 21.9524V19.6003C13.6744 19.6858 13.3406 19.7508 13 19.7941ZM19.7941 11H21.9524C22.531 11 23 10.531 23 9.95238V2.04762C23 1.46904 22.531 1 21.9524 1H14.0476C13.469 1 13 1.46904 13 2.04762V4.20589C13.3406 4.24916 13.6744 4.31423 14 4.39967V2.04762C14 2.02132 14.0213 2 14.0476 2H21.9524C21.9787 2 22 2.02132 22 2.04762V9.95238C22 9.97868 21.9787 10 21.9524 10H19.6003C19.6858 10.3256 19.7508 10.6594 19.7941 11Z" fill="#2B2F3F"/>
<path d="M15.4048 15.4048L13.7024 13.7024M10.6381 6.55238L12 5.19048L13.3619 6.55238M17.4476 10.6381L18.8095 12L17.4476 13.3619M6.55238 10.6381L5.19048 12L6.55238 13.3619M10.6381 17.4476L12 18.8095L13.3619 17.4476M9.95714 12C9.95714 12.5418 10.1724 13.0614 10.5555 13.4445C10.9386 13.8276 11.4582 14.0429 12 14.0429C12.5418 14.0429 13.0614 13.8276 13.4445 13.4445C13.8276 13.0614 14.0429 12.5418 14.0429 12C14.0429 11.4582 13.8276 10.9386 13.4445 10.5555C13.0614 10.1724 12.5418 9.95714 12 9.95714C11.4582 9.95714 10.9386 10.1724 10.5555 10.5555C10.1724 10.9386 9.95714 11.4582 9.95714 12Z" stroke="#2B2F3F" stroke-linecap="round" stroke-linejoin="round"/>
</svg>
