<svg width="24" height="24" viewBox="0 0 24 24" fill="none" xmlns="http://www.w3.org/2000/svg">
<path fill-rule="evenodd" clip-rule="evenodd" d="M6.65 21C4.24756 21 2.3 19.0525 2.3 16.65V6.65C2.3 4.2476 4.24756 2.3 6.65 2.3H16.65C19.0524 2.3 21 4.2476 21 6.65V11.65C21 12.009 21.291 12.3 21.65 12.3C22.009 12.3 22.3 12.009 22.3 11.65V6.65C22.3 3.5296 19.7704 0.999998 16.65 0.999998H6.65C3.52959 0.999998 1 3.5296 1 6.65V16.65C1 19.7704 3.52959 22.3 6.65 22.3H16.65C17.009 22.3 17.3 22.009 17.3 21.65C17.3 21.291 17.009 21 16.65 21H6.65Z" fill="#2B2F3F"/>
<rect x="12.65" y="13.65" width="8.7" height="5.7" rx="1.35" stroke="#2B2F3F" stroke-width="1.3"/>
<path d="M10.4498 10.9972L5.5 7M10.4498 10.9972L6 11M10.4498 10.9972L9.70596 6.54782" stroke="#2B2F3F" stroke-width="1.3" stroke-linecap="round" stroke-linejoin="round"/>
</svg>
