<svg width="24" height="24" viewBox="0 0 24 24" fill="none" xmlns="http://www.w3.org/2000/svg">
<rect x="4.65" y="9.65" width="14.7" height="11.7" rx="2.35" stroke="#2B2F3F" stroke-width="1.3"/>
<path d="M8.55414 9.65491C8.07243 9.02969 7.7699 8.28518 7.67896 7.50115C7.58803 6.71713 7.71213 5.92314 8.03796 5.20425C8.36379 4.48536 8.87907 3.86867 9.52859 3.42025C10.1781 2.97183 10.9374 2.70857 11.7251 2.65869C12.5128 2.60882 13.2992 2.77419 14.0001 3.1371C14.701 3.50002 15.29 4.04679 15.7039 4.71883C16.1178 5.39088 16.341 6.16287 16.3497 6.95211C16.3584 7.74134 16.1522 8.51806 15.7532 9.19906" stroke="#2B2F3F" stroke-width="1.3" stroke-linecap="round"/>
<path d="M11.9375 17C11.7649 17 11.625 16.8657 11.625 16.7V15.5C11.625 15.3343 11.7649 15.2 11.9375 15.2C12.1101 15.2 12.25 15.3343 12.25 15.5V16.7C12.25 16.8657 12.1101 17 11.9375 17Z" fill="#2B2F3F"/>
<path d="M13 14.96C13 15.4902 12.5523 15.92 12 15.92C11.4477 15.92 11 15.4902 11 14.96C11 14.4298 11.4477 14 12 14C12.5523 14 13 14.4298 13 14.96Z" fill="#2B2F3F"/>
</svg>
