<svg width="24" height="24" viewBox="0 0 24 24" fill="none" xmlns="http://www.w3.org/2000/svg">
<rect x="1.65" y="1.65" width="20" height="20" rx="5.35" stroke="#2B2F3F" stroke-width="1.3"/>
<path d="M12.5 9H13" stroke="#2B2F3F" stroke-linecap="round"/>
<path d="M11.5 10.5H13" stroke="#2B2F3F" stroke-linecap="round"/>
<rect x="9.5" y="6.5" width="4" height="7" rx="2" stroke="#2B2F3F"/>
<path d="M15.5 11C15.5 11.5978 15.394 12.1888 15.189 12.7388C14.9839 13.2887 14.6846 13.7852 14.3103 14.2011C13.9361 14.6168 13.4948 14.9435 13.013 15.1652C12.5315 15.3868 12.0175 15.5 11.5 15.5C10.9825 15.5 10.4685 15.3868 9.98697 15.1652C9.50521 14.9435 9.06386 14.6168 8.68967 14.2011C8.31538 13.7852 8.01605 13.2887 7.81105 12.7388C7.60603 12.1888 7.5 11.5978 7.5 11" stroke="#2B2F3F" stroke-linecap="round"/>
<path d="M11.5 16V17.5" stroke="#2B2F3F" stroke-linecap="round"/>
</svg>
